<mxfile host="app.diagrams.net" modified="2022-10-24T14:21:54.299Z" agent="5.0 (Windows NT 10.0; Win64; x64) AppleWebKit/537.36 (KHTML, like Gecko) Chrome/106.0.0.0 Safari/537.36" etag="merRJwUvdhtpNrhRMMPU" version="20.4.1" type="github">
  <diagram id="C5RBs43oDa-KdzZeNtuy" name="Page-1">
    <mxGraphModel dx="796" dy="1038" grid="1" gridSize="10" guides="1" tooltips="1" connect="1" arrows="1" fold="1" page="1" pageScale="1" pageWidth="827" pageHeight="1169" math="0" shadow="0">
      <root>
        <mxCell id="WIyWlLk6GJQsqaUBKTNV-0" />
        <mxCell id="WIyWlLk6GJQsqaUBKTNV-1" parent="WIyWlLk6GJQsqaUBKTNV-0" />
        <mxCell id="MVPdB6JpKKF3ZwXB1CaU-2" value="" style="edgeStyle=orthogonalEdgeStyle;rounded=0;orthogonalLoop=1;jettySize=auto;html=1;" edge="1" parent="WIyWlLk6GJQsqaUBKTNV-1" source="MVPdB6JpKKF3ZwXB1CaU-0" target="MVPdB6JpKKF3ZwXB1CaU-1">
          <mxGeometry relative="1" as="geometry" />
        </mxCell>
        <mxCell id="MVPdB6JpKKF3ZwXB1CaU-0" value="Start" style="ellipse;whiteSpace=wrap;html=1;" vertex="1" parent="WIyWlLk6GJQsqaUBKTNV-1">
          <mxGeometry x="220" y="60" width="120" height="60" as="geometry" />
        </mxCell>
        <mxCell id="MVPdB6JpKKF3ZwXB1CaU-5" value="" style="edgeStyle=orthogonalEdgeStyle;rounded=0;orthogonalLoop=1;jettySize=auto;html=1;" edge="1" parent="WIyWlLk6GJQsqaUBKTNV-1" source="MVPdB6JpKKF3ZwXB1CaU-1" target="MVPdB6JpKKF3ZwXB1CaU-4">
          <mxGeometry relative="1" as="geometry" />
        </mxCell>
        <mxCell id="MVPdB6JpKKF3ZwXB1CaU-1" value="int D1, D2" style="whiteSpace=wrap;html=1;" vertex="1" parent="WIyWlLk6GJQsqaUBKTNV-1">
          <mxGeometry x="220" y="200" width="120" height="60" as="geometry" />
        </mxCell>
        <mxCell id="MVPdB6JpKKF3ZwXB1CaU-7" value="" style="edgeStyle=orthogonalEdgeStyle;rounded=0;orthogonalLoop=1;jettySize=auto;html=1;" edge="1" parent="WIyWlLk6GJQsqaUBKTNV-1" source="MVPdB6JpKKF3ZwXB1CaU-4" target="MVPdB6JpKKF3ZwXB1CaU-6">
          <mxGeometry relative="1" as="geometry" />
        </mxCell>
        <mxCell id="MVPdB6JpKKF3ZwXB1CaU-4" value="&quot;Would you like&lt;br&gt;to roll? y/n&quot;" style="shape=parallelogram;perimeter=parallelogramPerimeter;whiteSpace=wrap;html=1;fixedSize=1;" vertex="1" parent="WIyWlLk6GJQsqaUBKTNV-1">
          <mxGeometry x="220" y="320" width="120" height="60" as="geometry" />
        </mxCell>
        <mxCell id="MVPdB6JpKKF3ZwXB1CaU-9" value="No" style="edgeStyle=orthogonalEdgeStyle;rounded=0;orthogonalLoop=1;jettySize=auto;html=1;" edge="1" parent="WIyWlLk6GJQsqaUBKTNV-1" source="MVPdB6JpKKF3ZwXB1CaU-6" target="MVPdB6JpKKF3ZwXB1CaU-8">
          <mxGeometry relative="1" as="geometry" />
        </mxCell>
        <mxCell id="MVPdB6JpKKF3ZwXB1CaU-15" value="Yes" style="edgeStyle=orthogonalEdgeStyle;rounded=0;orthogonalLoop=1;jettySize=auto;html=1;" edge="1" parent="WIyWlLk6GJQsqaUBKTNV-1" source="MVPdB6JpKKF3ZwXB1CaU-6" target="MVPdB6JpKKF3ZwXB1CaU-14">
          <mxGeometry relative="1" as="geometry" />
        </mxCell>
        <mxCell id="MVPdB6JpKKF3ZwXB1CaU-6" value="Is input &quot;y&quot;" style="rhombus;whiteSpace=wrap;html=1;" vertex="1" parent="WIyWlLk6GJQsqaUBKTNV-1">
          <mxGeometry x="240" y="450" width="80" height="80" as="geometry" />
        </mxCell>
        <mxCell id="MVPdB6JpKKF3ZwXB1CaU-11" value="Yes" style="edgeStyle=orthogonalEdgeStyle;rounded=0;orthogonalLoop=1;jettySize=auto;html=1;" edge="1" parent="WIyWlLk6GJQsqaUBKTNV-1" source="MVPdB6JpKKF3ZwXB1CaU-8" target="MVPdB6JpKKF3ZwXB1CaU-10">
          <mxGeometry relative="1" as="geometry" />
        </mxCell>
        <mxCell id="MVPdB6JpKKF3ZwXB1CaU-13" value="No" style="edgeStyle=orthogonalEdgeStyle;rounded=0;orthogonalLoop=1;jettySize=auto;html=1;entryX=1;entryY=0.5;entryDx=0;entryDy=0;" edge="1" parent="WIyWlLk6GJQsqaUBKTNV-1" source="MVPdB6JpKKF3ZwXB1CaU-8" target="MVPdB6JpKKF3ZwXB1CaU-4">
          <mxGeometry relative="1" as="geometry">
            <mxPoint x="440" y="400" as="targetPoint" />
            <Array as="points">
              <mxPoint x="440" y="350" />
            </Array>
          </mxGeometry>
        </mxCell>
        <mxCell id="MVPdB6JpKKF3ZwXB1CaU-8" value="Is input &quot;n&quot;" style="rhombus;whiteSpace=wrap;html=1;" vertex="1" parent="WIyWlLk6GJQsqaUBKTNV-1">
          <mxGeometry x="400" y="450" width="80" height="80" as="geometry" />
        </mxCell>
        <mxCell id="MVPdB6JpKKF3ZwXB1CaU-10" value="quit" style="whiteSpace=wrap;html=1;" vertex="1" parent="WIyWlLk6GJQsqaUBKTNV-1">
          <mxGeometry x="540" y="460" width="120" height="60" as="geometry" />
        </mxCell>
        <mxCell id="MVPdB6JpKKF3ZwXB1CaU-17" value="" style="edgeStyle=orthogonalEdgeStyle;rounded=0;orthogonalLoop=1;jettySize=auto;html=1;" edge="1" parent="WIyWlLk6GJQsqaUBKTNV-1" source="MVPdB6JpKKF3ZwXB1CaU-14" target="MVPdB6JpKKF3ZwXB1CaU-16">
          <mxGeometry relative="1" as="geometry" />
        </mxCell>
        <mxCell id="MVPdB6JpKKF3ZwXB1CaU-19" value="" style="edgeStyle=orthogonalEdgeStyle;rounded=0;orthogonalLoop=1;jettySize=auto;html=1;" edge="1" parent="WIyWlLk6GJQsqaUBKTNV-1" source="MVPdB6JpKKF3ZwXB1CaU-14" target="MVPdB6JpKKF3ZwXB1CaU-18">
          <mxGeometry relative="1" as="geometry" />
        </mxCell>
        <mxCell id="MVPdB6JpKKF3ZwXB1CaU-14" value="&quot;Rolling...&quot;" style="whiteSpace=wrap;html=1;" vertex="1" parent="WIyWlLk6GJQsqaUBKTNV-1">
          <mxGeometry x="220" y="620" width="120" height="60" as="geometry" />
        </mxCell>
        <mxCell id="MVPdB6JpKKF3ZwXB1CaU-21" value="" style="edgeStyle=orthogonalEdgeStyle;rounded=0;orthogonalLoop=1;jettySize=auto;html=1;exitX=0.5;exitY=1;exitDx=0;exitDy=0;" edge="1" parent="WIyWlLk6GJQsqaUBKTNV-1" source="MVPdB6JpKKF3ZwXB1CaU-16" target="MVPdB6JpKKF3ZwXB1CaU-20">
          <mxGeometry relative="1" as="geometry" />
        </mxCell>
        <mxCell id="MVPdB6JpKKF3ZwXB1CaU-16" value="D1 = random int 1-6" style="whiteSpace=wrap;html=1;" vertex="1" parent="WIyWlLk6GJQsqaUBKTNV-1">
          <mxGeometry x="20" y="620" width="120" height="60" as="geometry" />
        </mxCell>
        <mxCell id="MVPdB6JpKKF3ZwXB1CaU-22" style="edgeStyle=orthogonalEdgeStyle;rounded=0;orthogonalLoop=1;jettySize=auto;html=1;exitX=0.5;exitY=1;exitDx=0;exitDy=0;entryX=0.5;entryY=0;entryDx=0;entryDy=0;" edge="1" parent="WIyWlLk6GJQsqaUBKTNV-1" source="MVPdB6JpKKF3ZwXB1CaU-18" target="MVPdB6JpKKF3ZwXB1CaU-20">
          <mxGeometry relative="1" as="geometry" />
        </mxCell>
        <mxCell id="MVPdB6JpKKF3ZwXB1CaU-18" value="D2 = random int 1-6" style="whiteSpace=wrap;html=1;" vertex="1" parent="WIyWlLk6GJQsqaUBKTNV-1">
          <mxGeometry x="420" y="620" width="120" height="60" as="geometry" />
        </mxCell>
        <mxCell id="MVPdB6JpKKF3ZwXB1CaU-26" value="" style="edgeStyle=orthogonalEdgeStyle;rounded=0;orthogonalLoop=1;jettySize=auto;html=1;" edge="1" parent="WIyWlLk6GJQsqaUBKTNV-1" source="MVPdB6JpKKF3ZwXB1CaU-20" target="MVPdB6JpKKF3ZwXB1CaU-25">
          <mxGeometry relative="1" as="geometry" />
        </mxCell>
        <mxCell id="MVPdB6JpKKF3ZwXB1CaU-20" value="roll = D1 + D2" style="whiteSpace=wrap;html=1;" vertex="1" parent="WIyWlLk6GJQsqaUBKTNV-1">
          <mxGeometry x="220" y="760" width="120" height="60" as="geometry" />
        </mxCell>
        <mxCell id="MVPdB6JpKKF3ZwXB1CaU-28" value="" style="edgeStyle=orthogonalEdgeStyle;rounded=0;orthogonalLoop=1;jettySize=auto;html=1;" edge="1" parent="WIyWlLk6GJQsqaUBKTNV-1" source="MVPdB6JpKKF3ZwXB1CaU-25" target="MVPdB6JpKKF3ZwXB1CaU-27">
          <mxGeometry relative="1" as="geometry" />
        </mxCell>
        <mxCell id="MVPdB6JpKKF3ZwXB1CaU-25" value="&quot;Roll again? y/n&quot;" style="shape=parallelogram;perimeter=parallelogramPerimeter;whiteSpace=wrap;html=1;fixedSize=1;" vertex="1" parent="WIyWlLk6GJQsqaUBKTNV-1">
          <mxGeometry x="420" y="760" width="120" height="60" as="geometry" />
        </mxCell>
        <mxCell id="MVPdB6JpKKF3ZwXB1CaU-29" value="Yes" style="edgeStyle=orthogonalEdgeStyle;rounded=0;orthogonalLoop=1;jettySize=auto;html=1;exitX=0.5;exitY=0;exitDx=0;exitDy=0;" edge="1" parent="WIyWlLk6GJQsqaUBKTNV-1" source="MVPdB6JpKKF3ZwXB1CaU-27">
          <mxGeometry relative="1" as="geometry">
            <mxPoint x="620" y="520" as="targetPoint" />
            <Array as="points">
              <mxPoint x="620" y="520" />
            </Array>
          </mxGeometry>
        </mxCell>
        <mxCell id="MVPdB6JpKKF3ZwXB1CaU-31" value="" style="edgeStyle=orthogonalEdgeStyle;rounded=0;orthogonalLoop=1;jettySize=auto;html=1;" edge="1" parent="WIyWlLk6GJQsqaUBKTNV-1" source="MVPdB6JpKKF3ZwXB1CaU-27" target="MVPdB6JpKKF3ZwXB1CaU-30">
          <mxGeometry relative="1" as="geometry" />
        </mxCell>
        <mxCell id="MVPdB6JpKKF3ZwXB1CaU-27" value="is input &quot;n&quot;" style="rhombus;whiteSpace=wrap;html=1;" vertex="1" parent="WIyWlLk6GJQsqaUBKTNV-1">
          <mxGeometry x="580" y="750" width="80" height="80" as="geometry" />
        </mxCell>
        <mxCell id="MVPdB6JpKKF3ZwXB1CaU-32" value="Yes" style="edgeStyle=orthogonalEdgeStyle;rounded=0;orthogonalLoop=1;jettySize=auto;html=1;exitX=0.5;exitY=0;exitDx=0;exitDy=0;entryX=0.75;entryY=0;entryDx=0;entryDy=0;" edge="1" parent="WIyWlLk6GJQsqaUBKTNV-1" source="MVPdB6JpKKF3ZwXB1CaU-30" target="MVPdB6JpKKF3ZwXB1CaU-14">
          <mxGeometry relative="1" as="geometry" />
        </mxCell>
        <mxCell id="MVPdB6JpKKF3ZwXB1CaU-33" value="No" style="edgeStyle=orthogonalEdgeStyle;rounded=0;orthogonalLoop=1;jettySize=auto;html=1;exitX=0.5;exitY=1;exitDx=0;exitDy=0;entryX=0.5;entryY=1;entryDx=0;entryDy=0;" edge="1" parent="WIyWlLk6GJQsqaUBKTNV-1" source="MVPdB6JpKKF3ZwXB1CaU-30" target="MVPdB6JpKKF3ZwXB1CaU-25">
          <mxGeometry relative="1" as="geometry" />
        </mxCell>
        <mxCell id="MVPdB6JpKKF3ZwXB1CaU-30" value="is input &quot;y&quot;" style="rhombus;whiteSpace=wrap;html=1;" vertex="1" parent="WIyWlLk6GJQsqaUBKTNV-1">
          <mxGeometry x="700" y="750" width="80" height="80" as="geometry" />
        </mxCell>
      </root>
    </mxGraphModel>
  </diagram>
</mxfile>
